<?xml version="1.0" encoding="UTF-8" standalone="no"?>
<!-- Created with Inkscape (http://www.inkscape.org/) -->
<svg
   xmlns:dc="http://purl.org/dc/elements/1.1/"
   xmlns:cc="http://creativecommons.org/ns#"
   xmlns:rdf="http://www.w3.org/1999/02/22-rdf-syntax-ns#"
   xmlns:svg="http://www.w3.org/2000/svg"
   xmlns="http://www.w3.org/2000/svg"
   xmlns:sodipodi="http://sodipodi.sourceforge.net/DTD/sodipodi-0.dtd"
   xmlns:inkscape="http://www.inkscape.org/namespaces/inkscape"
   width="32"
   height="32"
   id="svg2"
   sodipodi:version="0.32"
   inkscape:version="0.46"
   version="1.0"
   inkscape:export-filename="/home/rageon/spiele/scroll.png"
   inkscape:export-xdpi="90"
   inkscape:export-ydpi="90"
   sodipodi:docname="scroll.svg"
   inkscape:output_extension="org.inkscape.output.svg.inkscape">
  <defs
     id="defs4">
    <inkscape:perspective
       sodipodi:type="inkscape:persp3d"
       inkscape:vp_x="0 : 526.18109 : 1"
       inkscape:vp_y="0 : 1000 : 0"
       inkscape:vp_z="744.09448 : 526.18109 : 1"
       inkscape:persp3d-origin="372.04724 : 350.78739 : 1"
       id="perspective10" />
    <filter
       inkscape:collect="always"
       id="filter3259"
       x="-0.10753833"
       width="1.2150767"
       y="-0.17494737"
       height="1.3498946">
      <feGaussianBlur
         inkscape:collect="always"
         stdDeviation="0.39606012"
         id="feGaussianBlur3261" />
    </filter>
  </defs>
  <sodipodi:namedview
     id="base"
     pagecolor="#ffffff"
     bordercolor="#666666"
     borderopacity="1.0"
     inkscape:pageopacity="0.0"
     inkscape:pageshadow="2"
     inkscape:zoom="11.2"
     inkscape:cx="16.098214"
     inkscape:cy="15.811017"
     inkscape:document-units="px"
     inkscape:current-layer="layer1"
     showgrid="false"
     inkscape:window-width="1278"
     inkscape:window-height="711"
     inkscape:window-x="0"
     inkscape:window-y="28" />
  <metadata
     id="metadata7">
    <rdf:RDF>
      <cc:Work
         rdf:about="">
        <dc:format>image/svg+xml</dc:format>
        <dc:type
           rdf:resource="http://purl.org/dc/dcmitype/StillImage" />
      </cc:Work>
    </rdf:RDF>
  </metadata>
  <g
     inkscape:label="Ebene 1"
     inkscape:groupmode="layer"
     id="layer1">
    <g
       id="g3309">
      <path
         sodipodi:nodetypes="cccccccc"
         id="path3289"
         d="M 13.660714,18.696429 L 21.839286,30.660714 C 22.373889,26.676307 24.654481,24.022178 30.178572,23.839286 L 17.017857,13.125 L 11.160714,1.4642856 C 4.523193,1.2782873 -0.018978039,2.4256936 1.1607143,7.2142856 L 13.571429,18.339286 L 13.660714,18.696429 z"
         style="fill:#d5c074;fill-rule:evenodd;stroke:#000000;stroke-width:1px;stroke-linecap:butt;stroke-linejoin:miter;stroke-opacity:1;fill-opacity:1" />
      <path
         id="path3297"
         d="M 21.607142,31.017857 C 23.124999,23.517857 27.767857,23.607143 29.642857,23.875 C 31.517857,24.142857 32.767857,28.428571 28.928571,30.303571 C 25.089285,32.178571 21.517857,31.196429 21.607142,31.017857 z"
         style="fill:#d5c074;fill-rule:evenodd;stroke:#000000;stroke-width:1px;stroke-linecap:butt;stroke-linejoin:miter;stroke-opacity:1;fill-opacity:1" />
    </g>
    <path
       id="path3291"
       style="fill:#960000;fill-rule:evenodd;stroke:#000000;stroke-width:1px;stroke-linecap:butt;stroke-linejoin:miter;stroke-opacity:1;fill-opacity:1"
       d="M 16.428571,12.535714 C 16.576519,12.387765 19.50911,14.955248 19.375,15.035714 C 19.24089,15.11618 19.051593,15.211306 18.928571,15.303571 C 18.518762,15.610929 18.040306,15.792347 17.589286,16.017857 C 17.132882,16.246059 16.541284,16.351573 16.160714,16.732143 C 15.686593,17.206264 15.187496,17.290187 14.910714,17.982143 C 14.631121,18.681127 14.790336,19.819023 14.642857,20.303571 C 15.460799,20.23645 12.333481,16.422487 11.875,16.642857 C 12.10807,16.468055 12.736882,15.365523 13.035714,14.767857 C 13.223371,14.392543 14.148769,13.708343 14.553571,13.607143 C 15.102952,13.469798 15.516971,13.125443 15.982143,12.892857 C 16.171937,12.79796 16.280623,12.683663 16.428571,12.535714 z"
       sodipodi:nodetypes="ccssssccsssc" />
  </g>
</svg>
